<svg id="Component_86_11" data-name="Component 86 – 11" xmlns="http://www.w3.org/2000/svg" width="24" height="24" viewBox="0 0 24 24">
  <rect id="Rectangle_179" data-name="Rectangle 179" width="24" height="24" fill="none"/>
  <rect id="Rectangle_179-2" data-name="Rectangle 179" width="24" height="24" fill="none"/>
  <g id="vuesax_outline_calendar" data-name="vuesax/outline/calendar" transform="translate(-488.5 -183.5)">
    <g id="calendar" transform="translate(492 188)">
      <path id="Vector" d="M.609,3.656A.614.614,0,0,1,0,3.047V.609A.614.614,0,0,1,.609,0a.614.614,0,0,1,.609.609V3.047A.614.614,0,0,1,.609,3.656Z" transform="translate(5.891 1.016)" fill="#292d32"/>
      <path id="Vector-2" data-name="Vector" d="M.609,3.656A.614.614,0,0,1,0,3.047V.609A.614.614,0,0,1,.609,0a.614.614,0,0,1,.609.609V3.047A.614.614,0,0,1,.609,3.656Z" transform="translate(12.391 1.016)" fill="#292d32"/>
      <path id="Vector-3" data-name="Vector" d="M.813,1.62A.809.809,0,0,1,.5,1.556a.839.839,0,0,1-.268-.171A.839.839,0,0,1,0,.808.809.809,0,0,1,.065.5.938.938,0,0,1,.236.231.839.839,0,0,1,.5.06a.83.83,0,0,1,.886.171.854.854,0,0,1,.236.577,1.221,1.221,0,0,1-.016.163.516.516,0,0,1-.049.146.615.615,0,0,1-.073.146,1.28,1.28,0,0,1-.1.122A.854.854,0,0,1,.813,1.62Z" transform="translate(6.094 10.161)" fill="#292d32"/>
      <path id="Vector-4" data-name="Vector" d="M.813,1.624A.809.809,0,0,1,.5,1.559a.839.839,0,0,1-.268-.171A.839.839,0,0,1,0,.812.809.809,0,0,1,.065.5.938.938,0,0,1,.236.235.839.839,0,0,1,.5.064a.814.814,0,0,1,.886.171.854.854,0,0,1,.236.577,1.221,1.221,0,0,1-.016.163.516.516,0,0,1-.049.146.615.615,0,0,1-.073.146,1.28,1.28,0,0,1-.1.122A.854.854,0,0,1,.813,1.624Z" transform="translate(8.938 10.157)" fill="#292d32"/>
      <path id="Vector-5" data-name="Vector" d="M.813,1.624A.809.809,0,0,1,.5,1.559a.839.839,0,0,1-.268-.171l-.1-.122A.615.615,0,0,1,.065,1.12.516.516,0,0,1,.016.974,1.221,1.221,0,0,1,0,.812.854.854,0,0,1,.236.235.839.839,0,0,1,.5.064a.812.812,0,0,1,.886.171.854.854,0,0,1,.236.577,1.221,1.221,0,0,1-.016.163.516.516,0,0,1-.049.146.615.615,0,0,1-.073.146,1.28,1.28,0,0,1-.1.122A.854.854,0,0,1,.813,1.624Z" transform="translate(11.781 10.157)" fill="#292d32"/>
      <path id="Vector-6" data-name="Vector" d="M.813,1.615A.809.809,0,0,1,.5,1.55a.938.938,0,0,1-.268-.171A.854.854,0,0,1,0,.8.809.809,0,0,1,.065.494.758.758,0,0,1,.236.225a.851.851,0,0,1,1.154,0A.854.854,0,0,1,1.625.8a.854.854,0,0,1-.236.577A.854.854,0,0,1,.813,1.615Z" transform="translate(6.094 13.01)" fill="#292d32"/>
      <path id="Vector-7" data-name="Vector" d="M.813,1.615a.854.854,0,0,1-.577-.236A.854.854,0,0,1,0,.8.809.809,0,0,1,.065.494.758.758,0,0,1,.236.225a.851.851,0,0,1,1.154,0A.758.758,0,0,1,1.56.494.809.809,0,0,1,1.625.8a.854.854,0,0,1-.236.577A.854.854,0,0,1,.813,1.615Z" transform="translate(8.938 13.01)" fill="#292d32"/>
      <path id="Vector-8" data-name="Vector" d="M.813,1.626A.854.854,0,0,1,.236,1.39a.758.758,0,0,1-.171-.268A.809.809,0,0,1,0,.813.809.809,0,0,1,.065.5.758.758,0,0,1,.236.236.811.811,0,0,1,.967.017a.49.49,0,0,1,.154.049.615.615,0,0,1,.146.073,1.28,1.28,0,0,1,.122.1.854.854,0,0,1,.236.577.854.854,0,0,1-.236.577A.854.854,0,0,1,.813,1.626Z" transform="translate(11.781 12.999)" fill="#292d32"/>
      <path id="Vector-9" data-name="Vector" d="M14.422,1.219H.609A.614.614,0,0,1,0,.609.614.614,0,0,1,.609,0H14.422a.614.614,0,0,1,.609.609A.614.614,0,0,1,14.422,1.219Z" transform="translate(2.234 6.776)" fill="#292d32"/>
      <path id="Vector-10" data-name="Vector" d="M11.172,16.25h-6.5C1.706,16.25,0,14.544,0,11.578V4.672C0,1.706,1.706,0,4.672,0h6.5c2.966,0,4.672,1.706,4.672,4.672v6.906C15.844,14.544,14.137,16.25,11.172,16.25ZM4.672,1.219c-2.324,0-3.453,1.129-3.453,3.453v6.906c0,2.324,1.129,3.453,3.453,3.453h6.5c2.324,0,3.453-1.129,3.453-3.453V4.672c0-2.324-1.129-3.453-3.453-3.453Z" transform="translate(1.828 2.234)" fill="#292d32"/>
      <path id="Vector-11" data-name="Vector" d="M0,0H19.5V19.5H0Z" fill="none" opacity="0"/>
    </g>
  </g>
</svg>
