<svg xmlns="http://www.w3.org/2000/svg" width="351.983" height="5.299" viewBox="0 0 351.983 5.299">
  <g id="Component_399_77" data-name="Component 399 – 77" transform="translate(0 0)">
    <g id="Group_992" data-name="Group 992" transform="translate(-40.028 -327)">
      <path id="Path_510" data-name="Path 510" d="M3.85.459,14.6,0c1.589,0,2.26.864,2.26,1.93s.287,1.93-1.3,1.93L3.85,4.574c-1.589,0-2.466-1.725-2.6-2.644S2.261.459,3.85.459Z" transform="translate(60.009 327)" fill="#ff6090"/>
      <path id="Path_511" data-name="Path 511" d="M2.215.514,11.9-.067c1.387-.008,1.967,1.258,1.962,2.445s-1.61,1.6-3,1.6l-8.5-.221C.976,3.769-.017,3.337-.012,2.149S.827.522,2.215.514Z" transform="translate(83.118 327.067) rotate(3)" fill="#ff6090"/>
      <path id="Path_512" data-name="Path 512" d="M2.8.516,15.193-.07c1.775-.015,1.364.866,1.349,2.178s-.927,2.287-2.7,2.3L2.283,4.132C.508,4.147.842,3.637.858,2.325S1.027.532,2.8.516Z" transform="translate(56.602 332.271) rotate(-177)" fill="#ff6090"/>
      <path id="Path_517" data-name="Path 517" d="M2.8.516H13.84C15.615.5,16.557.8,16.542,2.107s-.927,2.287-2.7,2.3L2.283,4.132C.508,4.147.842,3.637.858,2.325S1.027.532,2.8.516Z" transform="translate(119.727 332.409) rotate(-180)" fill="#ff6090"/>
    </g>
    <g id="Group_993" data-name="Group 993" transform="translate(43.972 -327)">
      <path id="Path_510-2" data-name="Path 510" d="M3.85.459,14.6,0c1.589,0,2.26.864,2.26,1.93s.287,1.93-1.3,1.93L3.85,4.574c-1.589,0-2.466-1.725-2.6-2.644S2.261.459,3.85.459Z" transform="translate(60.009 327)" fill="#ff6090"/>
      <path id="Path_511-2" data-name="Path 511" d="M2.215.514,11.9-.067c1.387-.008,1.967,1.258,1.962,2.445s-1.61,1.6-3,1.6l-8.5-.221C.976,3.769-.017,3.337-.012,2.149S.827.522,2.215.514Z" transform="translate(83.118 327.067) rotate(3)" fill="#ff6090"/>
      <path id="Path_512-2" data-name="Path 512" d="M2.8.516,15.193-.07c1.775-.015,1.364.866,1.349,2.178s-.927,2.287-2.7,2.3L2.283,4.132C.508,4.147.842,3.637.858,2.325S1.027.532,2.8.516Z" transform="translate(56.602 332.271) rotate(-177)" fill="#ff6090"/>
      <path id="Path_517-2" data-name="Path 517" d="M2.8.516H13.84C15.615.5,16.557.8,16.542,2.107s-.927,2.287-2.7,2.3L2.283,4.132C.508,4.147.842,3.637.858,2.325S1.027.532,2.8.516Z" transform="translate(119.727 332.409) rotate(-180)" fill="#ff6090"/>
    </g>
    <g id="Group_994" data-name="Group 994" transform="translate(127.972 -327)">
      <path id="Path_510-3" data-name="Path 510" d="M3.85.459,14.6,0c1.589,0,2.26.864,2.26,1.93s.287,1.93-1.3,1.93L3.85,4.574c-1.589,0-2.466-1.725-2.6-2.644S2.261.459,3.85.459Z" transform="translate(60.009 327)" fill="#ff6090"/>
      <path id="Path_511-3" data-name="Path 511" d="M2.215.514,11.9-.067c1.387-.008,1.967,1.258,1.962,2.445s-1.61,1.6-3,1.6l-8.5-.221C.976,3.769-.017,3.337-.012,2.149S.827.522,2.215.514Z" transform="translate(83.118 327.067) rotate(3)" fill="#ff6090"/>
      <path id="Path_512-3" data-name="Path 512" d="M2.8.516,15.193-.07c1.775-.015,1.364.866,1.349,2.178s-.927,2.287-2.7,2.3L2.283,4.132C.508,4.147.842,3.637.858,2.325S1.027.532,2.8.516Z" transform="translate(56.602 332.271) rotate(-177)" fill="#ff6090"/>
      <path id="Path_517-3" data-name="Path 517" d="M2.8.516H13.84C15.615.5,16.557.8,16.542,2.107s-.927,2.287-2.7,2.3L2.283,4.132C.508,4.147.842,3.637.858,2.325S1.027.532,2.8.516Z" transform="translate(119.727 332.409) rotate(-180)" fill="#ff6090"/>
    </g>
    <g id="Group_995" data-name="Group 995" transform="translate(211.972 -327)">
      <path id="Path_510-4" data-name="Path 510" d="M3.85.459,14.6,0c1.589,0,2.26.864,2.26,1.93s.287,1.93-1.3,1.93L3.85,4.574c-1.589,0-2.466-1.725-2.6-2.644S2.261.459,3.85.459Z" transform="translate(60.009 327)" fill="#ff6090"/>
      <path id="Path_511-4" data-name="Path 511" d="M2.215.514,11.9-.067c1.387-.008,1.967,1.258,1.962,2.445s-1.61,1.6-3,1.6l-8.5-.221C.976,3.769-.017,3.337-.012,2.149S.827.522,2.215.514Z" transform="translate(83.118 327.067) rotate(3)" fill="#ff6090"/>
      <path id="Path_512-4" data-name="Path 512" d="M2.8.516,15.193-.07c1.775-.015,1.364.866,1.349,2.178s-.927,2.287-2.7,2.3L2.283,4.132C.508,4.147.842,3.637.858,2.325S1.027.532,2.8.516Z" transform="translate(56.602 332.271) rotate(-177)" fill="#ff6090"/>
      <path id="Path_517-4" data-name="Path 517" d="M2.8.516H13.84C15.615.5,16.557.8,16.542,2.107s-.927,2.287-2.7,2.3L2.283,4.132C.508,4.147.842,3.637.858,2.325S1.027.532,2.8.516Z" transform="translate(119.727 332.409) rotate(-180)" fill="#ff6090"/>
    </g>
    <g id="Group_996" data-name="Group 996" transform="translate(295.972 -327)">
      <path id="Path_512-5" data-name="Path 512" d="M2.8.516,15.193-.07c1.775-.015,1.364.866,1.349,2.178s-.927,2.287-2.7,2.3L2.283,4.132C.508,4.147.842,3.637.858,2.325S1.027.532,2.8.516Z" transform="translate(56.602 332.271) rotate(-177)" fill="#ff6090"/>
    </g>
  </g>
</svg>
