<svg id="gallery-add" xmlns="http://www.w3.org/2000/svg" width="30" height="30" viewBox="0 0 30 30">
  <path id="Vector" d="M3.438,6.875A3.438,3.438,0,1,1,6.875,3.438,3.436,3.436,0,0,1,3.438,6.875Zm0-5A1.563,1.563,0,1,0,5,3.438,1.563,1.563,0,0,0,3.438,1.875Z" transform="translate(7.813 6.563)" fill="#9aa1a5"/>
  <path id="Vector-2" data-name="Vector" d="M17.188,26.875h-7.5C2.9,26.875,0,23.975,0,17.188v-7.5C0,2.9,2.9,0,9.688,0h5a.944.944,0,0,1,.938.938.944.944,0,0,1-.937.938h-5c-5.763,0-7.812,2.05-7.812,7.813v7.5C1.875,22.95,3.925,25,9.688,25h7.5C22.95,25,25,22.95,25,17.188v-6.25a.938.938,0,0,1,1.875,0v6.25C26.875,23.975,23.975,26.875,17.188,26.875Z" transform="translate(1.563 1.563)" fill="#9aa1a5"/>
  <path id="Vector-3" data-name="Vector" d="M7.813,1.875H.938A.944.944,0,0,1,0,.938.944.944,0,0,1,.938,0H7.813A.944.944,0,0,1,8.75.938.944.944,0,0,1,7.813,1.875Z" transform="translate(18.75 5.313)" fill="#9aa1a5"/>
  <path id="Vector-4" data-name="Vector" d="M.938,8.75A.944.944,0,0,1,0,7.813V.938A.944.944,0,0,1,.938,0a.944.944,0,0,1,.938.938V7.813A.944.944,0,0,1,.938,8.75Z" transform="translate(22.188 1.875)" fill="#9aa1a5"/>
  <path id="Vector-5" data-name="Vector" d="M.934,10.566A.937.937,0,0,1,.409,8.853L6.572,4.716a3.755,3.755,0,0,1,4.437.237l.413.362a1.842,1.842,0,0,0,2.3,0l5.2-4.462a3.732,3.732,0,0,1,4.75,0L25.709,2.6a.94.94,0,1,1-1.225,1.425l-2.038-1.75a1.842,1.842,0,0,0-2.3,0l-5.2,4.462a3.732,3.732,0,0,1-4.75,0l-.412-.362a1.859,1.859,0,0,0-2.162-.1l-6.15,4.137A1.094,1.094,0,0,1,.934,10.566Z" transform="translate(2.403 14.059)" fill="#9aa1a5"/>
  <path id="Vector-6" data-name="Vector" d="M0,0H30V30H0Z" fill="none" opacity="0"/>
</svg>
