<svg id="Group_3362" data-name="Group 3362" xmlns="http://www.w3.org/2000/svg" width="24" height="24" viewBox="0 0 24 24">
  <g id="Component_352_6" data-name="Component 352 – 6">
    <g id="Symbol_165_558" data-name="Symbol 165 – 558">
      <path id="Path_5247" data-name="Path 5247" d="M0,0H24V24H0Z" fill="none"/>
    </g>
    <g id="vuesax_outline_profile-2user" data-name="vuesax/outline/profile-2user" transform="translate(-168 -249.934)">
      <g id="profile-2user" transform="translate(172 252)">
        <path id="Vector" d="M4.429,8.584H4.363a.449.449,0,0,0-.149,0,4.259,4.259,0,1,1,.24,0ZM4.3,1.242a3.052,3.052,0,0,0-.116,6.1,1.378,1.378,0,0,1,.265,0,3.052,3.052,0,0,0-.149-6.1Z" transform="translate(3.154 1.035)" fill="#292d32"/>
        <path id="Vector-2" data-name="Vector" d="M.8,7.036a.229.229,0,0,1-.075-.008A.656.656,0,0,1,0,6.482a.6.6,0,0,1,.513-.687c.1-.008.207-.008.3-.008A2.278,2.278,0,0,0,.691,1.233.613.613,0,0,1,.07.621.625.625,0,0,1,.691,0,3.526,3.526,0,0,1,4.209,3.518,3.511,3.511,0,0,1,.823,7.036Z" transform="translate(12.894 2.69)" fill="#292d32"/>
        <path id="Vector-3" data-name="Vector" d="M6.267,8.371A8.177,8.177,0,0,1,1.78,7.13,3.552,3.552,0,0,1,0,4.191,3.589,3.589,0,0,1,1.78,1.236a8.765,8.765,0,0,1,8.974,0,3.571,3.571,0,0,1,1.78,2.939,3.589,3.589,0,0,1-1.78,2.955A8.2,8.2,0,0,1,6.267,8.371Zm-3.8-6.093A2.38,2.38,0,0,0,1.242,4.2,2.375,2.375,0,0,0,2.467,6.1a7.481,7.481,0,0,0,7.6,0,2.38,2.38,0,0,0,1.225-1.921,2.375,2.375,0,0,0-1.225-1.9A7.52,7.52,0,0,0,2.467,2.279Z" transform="translate(1.324 10.296)" fill="#292d32"/>
        <path id="Vector-4" data-name="Vector" d="M0,0H19.868V19.868H0Z" fill="none" opacity="0"/>
        <path id="Vector-5" data-name="Vector" d="M.616,6.215a.611.611,0,0,1-.6-.5.629.629,0,0,1,.48-.737,3.353,3.353,0,0,0,1.374-.6A1.619,1.619,0,0,0,2.595,3.1a1.606,1.606,0,0,0-.72-1.267,3.466,3.466,0,0,0-1.358-.6A.624.624,0,1,1,.79.015,4.62,4.62,0,0,1,2.628.843,2.847,2.847,0,0,1,3.836,3.1,2.883,2.883,0,0,1,2.62,5.371,4.484,4.484,0,0,1,.749,6.2.387.387,0,0,1,.616,6.215Z" transform="translate(14.566 10.962)" fill="#292d32"/>
      </g>
    </g>
  </g>
</svg>
