<svg xmlns="http://www.w3.org/2000/svg" xmlns:xlink="http://www.w3.org/1999/xlink" width="33.787" height="31.84" viewBox="0 0 33.787 31.84">
  <defs>
    <linearGradient id="linear-gradient" x1="0.667" y1="-0.047" x2="-0.622" y2="1.367" gradientUnits="objectBoundingBox">
      <stop offset="0" stop-color="#ff6090"/>
      <stop offset="1" stop-color="#820035"/>
    </linearGradient>
    <linearGradient id="linear-gradient-3" x1="0.75" y1="0.477" x2="0.603" y2="0.634" gradientUnits="objectBoundingBox">
      <stop offset="0" stop-color="#ff6090"/>
      <stop offset="1" stop-color="#870037"/>
    </linearGradient>
  </defs>
  <g id="Group_43841" data-name="Group 43841" transform="translate(0 4.26) rotate(-8)">
    <g id="Group_43813" data-name="Group 43813" transform="translate(15.009 20.395)">
      <path id="Path_96777" data-name="Path 96777" d="M1059.656,443.245a58.892,58.892,0,0,0,6.5,4.769l-2.353-6.5Z" transform="translate(-1059.115 -440.977)" fill="url(#linear-gradient)"/>
      <g id="Group_43812" data-name="Group 43812">
        <path id="Path_96778" data-name="Path 96778" d="M1057.249,441.6a58.751,58.751,0,0,0,6.611,4.851.53.53,0,0,0,.771-.593l-2.354-6.5a.529.529,0,0,0-.645-.366l-4.152,1.732c-.614.256-.344,1.272.279,1.012l4.151-1.732-.645-.366,2.353,6.5.771-.593a56.769,56.769,0,0,1-6.4-4.687C1057.486,440.411,1056.741,441.151,1057.249,441.6Z" transform="translate(-1057.079 -438.959)" fill="url(#linear-gradient)"/>
      </g>
    </g>
    <g id="Group_43811" data-name="Group 43811" transform="translate(0 0)">
      <path id="Union_15" data-name="Union 15" d="M14512.407,8311.583a5.4,5.4,0,0,1-2.091-2.82,90.738,90.738,0,0,1-4.933-18.315c-.176-.952-.424-2.2.354-2.97a2.71,2.71,0,0,1,2.536-.321,45.275,45.275,0,0,1,6.057,1.646,104.576,104.576,0,0,1,12.868,5.353c1.715.843,3.415,1.722,5.064,2.692a16.4,16.4,0,0,1,2.8,1.92.567.567,0,0,1,.063.058.664.664,0,0,1,.063.067c2.67,3-4.064,6.435-5.951,7.471a.49.49,0,0,1-.686-.176c-3.629-3.205-7.233-6.441-10.892-9.613a69.557,69.557,0,0,0-8.44-6.449q8.13,8.618,16.052,17.438a.529.529,0,0,1-.105.82,50.084,50.084,0,0,1-8.607,3.193,10.586,10.586,0,0,1-2.475.4A3.369,3.369,0,0,1,14512.407,8311.583Zm16.207-5.345Z" transform="translate(-14505.202 -8287)" fill="#ffb4cb"/>
    </g>
    <g id="Group_43815" data-name="Group 43815" transform="translate(0.68 0.383)">
      <path id="Union_14" data-name="Union 14" d="M20.867,27.188c-.615-1.541-1.192-3.1-1.684-4.684a5.131,5.131,0,0,0-.655-1.721c-1.954-2.443-4.232-4.69-6.349-6.994Q9.267,10.617,6.327,7.47,3.274,4.195.2.946A.459.459,0,0,1,.061.333.513.513,0,0,1,.827.1c5.84,3,10.709,7.462,15.59,11.778q1.892,1.675,3.787,3.349l2.057,1.821c.394.348,1.189.8,1.347,1.3a5.444,5.444,0,0,1-.263,1.971c-.128.7-.274,1.4-.428,2.1-.352,1.59-.724,3.175-1.037,4.774a.426.426,0,0,1-.439.374A.635.635,0,0,1,20.867,27.188Zm1.013-.278Z" transform="translate(0 0)" fill="url(#linear-gradient-3)"/>
    </g>
  </g>
</svg>
