<svg xmlns="http://www.w3.org/2000/svg" width="10.354" height="9.872" viewBox="0 0 10.354 9.872">
  <g id="star" transform="translate(-0.903 -0.839)">
    <path id="star-2" data-name="star" d="M9.13,5.054A.653.653,0,0,0,9.3,4.376a.663.663,0,0,0-.54-.451L6.5,3.6a.3.3,0,0,1-.222-.16L5.266,1.416a.673.673,0,0,0-1.2,0L3.055,3.441a.3.3,0,0,1-.223.16l-2.26.325a.663.663,0,0,0-.54.451A.653.653,0,0,0,.2,5.054L1.837,6.63a.291.291,0,0,1,.085.259L1.536,9.115a.643.643,0,0,0,.146.537.682.682,0,0,0,.825.161L4.529,8.761a.306.306,0,0,1,.275,0L6.825,9.812a.671.671,0,0,0,.825-.161A.643.643,0,0,0,7.8,9.115L7.41,6.889A.29.29,0,0,1,7.5,6.63Z" transform="translate(1.414 0.292)" fill="#ff6090" stroke="#ff6090" stroke-width="1"/>
  </g>
</svg>
